# xmcd CD database file generated by Grip 2.9
# 
# Track frame offsets:
#       150
#       25262
#       47132
#       68267
#       91697
#       114602
#       135767
#       152942
#       174917
#       190247
# 
# Disc length: 2857 seconds
# 
# Revision: 3
# Processed by: cddbd v1.4PL0 Copyright (c) Steve Scherf et al.
# Submitted via: Grip 2.9
# 
DISCID=710b270a
DTITLE=Nashville Connection - Platin Edition - The Country Hits - CD1
DYEAR=1900
DGENRE=
TTITLE0=Favourites No. 1
TTITLE1=Hank Williams Medley
TTITLE2=Country Folk
TTITLE3=Romance Waltz Time
TTITLE4=Favourites No. 2
TTITLE5=Favourites No. 3
TTITLE6=Johnny Cash Medley
TTITLE7=On the Trail
TTITLE8=Rebel Songs
TTITLE9=Jeff Turner Medley
EXTD=
EXTT0=
EXTT1=
EXTT2=
EXTT3=
EXTT4=
EXTT5=
EXTT6=
EXTT7=
EXTT8=
EXTT9=
PLAYORDER=
